<?xml version="1.0" standalone="no"?>
<!DOCTYPE svg PUBLIC "-//W3C//DTD SVG 20010904//EN"
 "http://www.w3.org/TR/2001/REC-SVG-20010904/DTD/svg10.dtd">
<svg version="1.0" xmlns="http://www.w3.org/2000/svg"
 width="256.000000pt" height="256.000000pt" viewBox="0 0 256.000000 256.000000"
 preserveAspectRatio="xMidYMid meet">
<metadata>
Created by potrace 1.14, written by Peter Selinger 2001-2017
</metadata>
<g transform="translate(0.000000,256.000000) scale(0.100000,-0.100000)"
fill="#000000" stroke="none">
<path d="M1207 2440 c-350 -63 -617 -309 -709 -652 -31 -118 -31 -308 0 -426
69 -257 232 -458 467 -575 39 -19 90 -41 115 -48 25 -7 48 -15 52 -19 5 -3
-105 -118 -242 -255 -194 -193 -250 -254 -250 -273 0 -35 127 -162 161 -162
18 0 86 62 276 252 l253 253 117 -117 c148 -147 194 -169 281 -133 24 11 128
106 305 283 l268 267 -2 -119 c-1 -148 -3 -146 131 -146 81 0 100 3 113 18 15
17 17 55 17 344 0 286 -2 327 -16 339 -12 10 -57 12 -190 10 -96 -1 -174 1
-174 6 0 4 7 30 15 58 41 135 38 336 -7 484 -30 98 -102 230 -167 308 -110
131 -282 240 -446 284 -90 23 -287 34 -368 19z m41 -302 c7 -7 12 -42 12 -85
l0 -73 75 0 74 0 3 76 c2 60 7 79 21 88 12 8 22 8 35 0 13 -9 18 -30 22 -101
5 -89 5 -89 44 -124 22 -18 47 -52 57 -74 35 -76 19 -186 -34 -244 -17 -18
-19 -25 -8 -29 29 -10 91 -75 110 -115 30 -65 35 -118 16 -182 -19 -68 -80
-139 -142 -167 l-43 -19 0 -72 c0 -71 -10 -97 -36 -97 -30 0 -44 31 -44 96 l0
64 -75 0 -74 0 -3 -71 c-2 -55 -7 -74 -20 -83 -13 -8 -23 -8 -35 0 -14 9 -19
28 -21 83 -2 62 -5 71 -22 71 -10 0 -26 7 -34 16 -14 13 -16 67 -16 434 0 367
2 421 16 434 8 9 24 16 35 16 17 0 19 8 19 73 0 74 9 97 40 97 9 0 21 -5 28
-12z m647 -1338 c-121 -121 -224 -220 -230 -220 -12 0 -140 128 -134 134 2 1
27 9 54 15 127 31 313 144 400 244 36 40 45 45 85 46 l45 1 -220 -220z"/>
<path d="M1190 1751 l0 -151 108 0 c126 0 179 19 212 72 40 66 16 163 -51 203
-28 16 -56 21 -151 24 l-118 3 0 -151z"/>
<path d="M1190 1339 l0 -182 147 8 c92 4 158 12 174 21 35 18 78 69 85 102 3
15 8 33 10 41 6 20 -16 92 -39 125 -37 52 -85 66 -239 66 l-138 0 0 -181z"/>
<path d="M167 772 c-92 -92 -167 -173 -167 -178 0 -15 22 -34 40 -34 8 0 89
74 179 164 133 133 162 167 159 187 -7 55 -38 35 -211 -139z"/>
<path d="M219 494 c-93 -93 -169 -176 -169 -186 0 -9 9 -22 21 -29 19 -10 37
5 190 157 93 93 169 176 169 186 0 9 -9 22 -21 29 -19 10 -37 -5 -190 -157z"/>
<path d="M512 456 c-175 -176 -189 -195 -150 -220 15 -9 44 15 198 169 186
186 207 216 150 223 -21 2 -55 -27 -198 -172z"/>
</g>
</svg>
